<?xml version="1.0" standalone="no"?>
<!DOCTYPE svg PUBLIC "-//W3C//DTD SVG 20010904//EN"
 "http://www.w3.org/TR/2001/REC-SVG-20010904/DTD/svg10.dtd">
<svg version="1.0" xmlns="http://www.w3.org/2000/svg"
 width="816.000000pt" height="306.000000pt" viewBox="0 0 816.000000 306.000000"
 preserveAspectRatio="xMidYMid meet">

<g transform="translate(0.000000,306.000000) scale(0.100000,-0.100000)"
fill="#000000" stroke="none">
<path d="M1876 2974 c-21 -20 -20 -31 4 -51 19 -16 20 -30 20 -213 0 -118 4
-189 9 -180 11 19 18 431 7 448 -10 16 -21 15 -40 -4z"/>
<path d="M2406 2925 c-7 -20 2 -42 20 -49 11 -4 14 -27 14 -101 l0 -95 -175 0
-175 0 0 -90 c0 -53 4 -90 10 -90 6 0 10 35 10 85 l0 85 170 0 170 0 0 100 c0
59 5 108 12 119 6 10 8 26 5 35 -8 20 -53 21 -61 1z"/>
<path d="M1244 2658 c-5 -16 -1 -26 15 -36 17 -12 21 -25 23 -71 l1 -56 6 60
c3 33 10 66 14 73 5 7 5 21 2 32 -9 28 -52 27 -61 -2z"/>
<path d="M1705 2510 c-3 -6 1 -7 9 -4 18 7 21 14 7 14 -6 0 -13 -4 -16 -10z"/>
<path d="M1154 2393 l-39 -68 -3 -162 c-4 -158 -4 -161 18 -173 22 -12 34 -22
148 -125 28 -26 52 -56 52 -66 0 -13 7 -19 21 -19 23 0 55 -26 247 -199 l124
-111 36 29 c21 16 53 46 72 66 l35 37 -45 39 c-25 22 -67 59 -94 82 -105 89
-302 262 -316 277 -8 9 -55 51 -105 94 -102 89 -100 83 -104 266 -1 52 -4 96
-6 98 -2 2 -20 -27 -41 -65z"/>
<path d="M2745 2381 c-4 -7 -58 -12 -138 -12 -84 -1 -117 -4 -92 -9 22 -3 78
-4 124 -2 78 5 85 4 101 -18 24 -32 62 -20 58 18 -3 28 -40 44 -53 23z"/>
<path d="M1694 2171 c3 -5 45 -42 92 -82 l86 -73 109 3 109 2 0 -46 c0 -38 -4
-48 -20 -52 -14 -4 -20 -14 -20 -33 0 -21 12 -37 46 -65 l46 -38 -7 64 c-4 35
-11 68 -16 74 -5 5 -9 28 -9 52 l0 43 131 -1 c71 -1 132 0 133 2 2 2 24 39 49
82 l46 77 -390 0 c-221 0 -388 -4 -385 -9z"/>
<path d="M1034 2116 c-10 -26 4 -48 28 -44 16 2 23 10 23 28 0 18 -7 26 -23
28 -13 2 -25 -3 -28 -12z"/>
<path d="M662 2011 c-8 -4 -12 -19 -10 -32 4 -32 42 -38 58 -10 10 20 20 21
198 23 l187 2 -195 6 c-107 3 -202 9 -210 13 -8 4 -21 3 -28 -2z"/>
<path d="M160 1950 c0 -16 5 -30 10 -30 6 0 10 -83 10 -230 0 -147 4 -230 10
-230 6 0 10 82 10 225 0 153 4 231 12 244 16 26 3 51 -27 51 -21 0 -25 -5 -25
-30z"/>
<path d="M2299 1955 c-3 -24 -10 -31 -30 -33 -24 -3 -27 -8 -33 -55 -10 -89
-11 -87 39 -87 l45 0 -1 48 c-1 26 -4 72 -8 102 -6 44 -8 49 -12 25z"/>
<path d="M5130 1778 l0 -162 -27 26 c-82 78 -238 61 -300 -32 -59 -87 -70
-261 -23 -368 70 -160 289 -191 360 -51 12 22 24 38 28 34 4 -3 12 -30 17 -58
l10 -52 73 -3 72 -3 0 416 0 415 -105 0 -105 0 0 -162z m-49 -238 c33 -18 49
-64 49 -143 0 -61 -4 -80 -23 -108 -20 -30 -28 -34 -67 -34 -39 0 -47 4 -68
35 -21 31 -23 44 -20 123 3 83 5 90 31 113 30 25 66 31 98 14z"/>
<path d="M1146 1874 c-12 -92 -12 -94 40 -94 l47 0 -5 51 c-4 39 -11 56 -29
70 -36 28 -46 23 -53 -27z"/>
<path d="M2800 1750 l0 -170 -93 0 c-51 0 -97 4 -103 9 -5 5 -39 12 -76 16
l-68 7 0 -46 0 -47 70 3 c65 3 70 5 70 26 0 21 3 22 100 22 l100 0 0 -90 0
-90 -100 0 c-82 0 -100 3 -100 15 0 9 -9 15 -24 15 -13 0 -44 3 -70 6 l-46 7
0 -47 0 -46 70 2 c48 2 70 7 70 16 0 9 24 12 84 12 46 0 91 3 100 6 13 5 16
-12 18 -128 l3 -133 103 -3 102 -3 0 166 0 165 145 0 145 0 0 -165 0 -165 105
0 105 0 0 405 0 405 -105 0 -105 0 0 -155 0 -155 -145 0 -145 0 0 155 0 155
-105 0 -105 0 0 -170z"/>
<path d="M404 1675 c-10 -25 4 -45 31 -45 14 0 25 5 25 10 0 6 90 10 250 10
243 0 250 -1 250 -20 0 -18 7 -20 70 -20 l70 0 0 40 0 40 -70 0 c-40 0 -70 -4
-70 -10 0 -6 -88 -10 -244 -10 -153 0 -247 4 -251 10 -10 15 -55 12 -61 -5z"/>
<path d="M3779 1673 c-25 -10 -54 -25 -66 -33 -28 -21 -63 -80 -63 -107 0 -22
4 -23 76 -23 67 0 80 3 106 25 40 34 110 35 132 3 31 -44 22 -58 -37 -58 -130
0 -240 -41 -278 -103 -13 -22 -19 -50 -19 -93 0 -69 23 -113 77 -150 80 -54
212 -34 248 36 21 41 31 38 41 -12 l9 -43 83 -3 83 -3 -3 240 c-3 270 -5 276
-84 316 -56 28 -239 33 -305 8z m196 -342 c-1 -46 -5 -57 -29 -77 -33 -29 -65
-30 -100 -3 -31 24 -36 77 -8 102 21 19 78 36 112 34 23 -2 25 -5 25 -56z"/>
<path d="M4614 1671 c-36 -22 -69 -62 -92 -111 l-17 -35 -3 78 -3 77 -99 0
-100 0 0 -285 0 -286 103 3 102 3 5 165 c3 91 9 171 14 179 14 22 72 41 126
41 l50 0 0 95 0 95 -27 0 c-16 0 -42 -9 -59 -19z"/>
<path d="M6482 1672 c-76 -27 -108 -62 -126 -134 l-6 -28 84 0 c61 0 87 4 93
14 13 21 49 36 90 36 46 0 63 -14 63 -51 0 -26 -1 -26 -82 -32 -99 -8 -144
-20 -188 -50 -50 -33 -72 -70 -78 -125 -11 -124 95 -217 227 -197 37 6 54 15
88 52 l42 45 12 -46 12 -47 81 3 81 3 0 230 c0 263 -4 278 -78 317 -60 31
-238 37 -315 10z m198 -335 c0 -62 -18 -93 -59 -102 -39 -8 -89 18 -97 51 -14
56 40 98 134 103 20 1 22 -3 22 -52z"/>
<path d="M7340 1683 c-38 -14 -73 -49 -95 -94 -14 -27 -30 -49 -35 -49 -6 0
-10 31 -10 70 l0 70 -97 0 -98 0 3 -285 3 -285 99 0 100 0 0 153 c0 101 4 160
13 177 17 35 73 60 135 60 l52 0 0 95 0 95 -27 -1 c-16 0 -35 -3 -43 -6z"/>
<path d="M7650 1681 c-116 -36 -192 -147 -194 -281 -1 -157 97 -272 255 -295
128 -19 271 63 304 173 6 22 5 22 -83 22 -82 0 -90 -2 -112 -25 -19 -20 -33
-25 -71 -25 -39 0 -51 4 -68 26 -12 15 -21 40 -21 55 l0 29 181 0 182 0 -6 71
c-11 125 -68 210 -164 245 -41 14 -162 17 -203 5z m133 -133 c28 -15 46 -38
47 -60 0 -16 -11 -18 -90 -18 -49 0 -90 3 -90 8 1 18 29 56 51 68 30 17 54 17
82 2z"/>
<path d="M5420 1672 c0 -4 42 -132 94 -282 l94 -275 68 0 69 0 45 137 c25 76
48 138 52 138 3 0 22 -53 42 -117 55 -177 44 -163 124 -163 l69 0 101 283 100
282 -81 3 c-44 2 -85 1 -92 -2 -6 -2 -29 -63 -51 -135 -21 -72 -44 -131 -49
-131 -6 0 -20 37 -33 83 -13 45 -30 106 -38 135 l-15 52 -73 0 -72 0 -40 -131
c-21 -72 -43 -131 -48 -132 -6 -1 -28 57 -51 128 l-41 130 -87 3 c-48 1 -87
-1 -87 -6z"/>
<path d="M960 1495 c0 -13 -48 -15 -370 -15 -240 0 -370 -4 -370 -10 0 -6 130
-10 370 -10 322 0 370 -2 370 -15 0 -12 14 -15 70 -15 l70 0 0 40 0 40 -70 0
c-56 0 -70 -3 -70 -15z"/>
<path d="M2058 1343 c-188 -162 -363 -316 -366 -322 -1 -3 16 -6 38 -5 32 1
50 10 98 53 33 28 62 51 66 51 3 0 6 -16 6 -35 0 -34 1 -35 41 -35 l40 0 -2
70 -2 69 74 73 c41 40 86 97 101 126 16 28 26 52 24 52 -2 0 -55 -44 -118 -97z"/>
<path d="M958 1313 c-2 -10 -2 -28 0 -40 4 -21 10 -23 73 -23 l69 0 0 40 0 40
-69 0 c-58 0 -70 -3 -73 -17z"/>
<path d="M467 1293 c-4 -3 -7 -84 -7 -179 0 -143 -2 -173 -15 -178 -19 -7 -19
-52 0 -60 38 -14 40 -2 40 214 0 116 -3 210 -6 210 -3 0 -9 -3 -12 -7z"/>
<path d="M1368 1183 c-10 -2 -18 -9 -18 -14 0 -14 16 -11 30 6 7 8 11 14 9 14
-2 -1 -12 -3 -21 -6z"/>
<path d="M1170 1115 c0 -37 4 -65 10 -65 6 0 10 -9 10 -19 0 -17 4 -16 29 10
23 22 31 42 36 84 l7 55 -46 0 -46 0 0 -65z"/>
<path d="M2080 1115 l0 -65 40 0 40 0 0 65 0 65 -40 0 -40 0 0 -65z"/>
<path d="M2260 1161 c0 -10 3 -39 6 -65 6 -44 8 -46 40 -46 l34 0 0 65 0 65
-40 0 c-32 0 -40 -4 -40 -19z"/>
<path d="M2902 998 c-18 -18 -14 -46 7 -58 15 -7 23 -6 35 6 20 20 20 27 -2
47 -22 20 -25 20 -40 5z"/>
<path d="M1152 911 c-35 -70 -43 -97 -42 -137 1 -27 1 -89 1 -138 -1 -49 0
-90 2 -92 4 -4 178 -5 770 -5 375 1 507 4 507 12 0 7 18 43 39 80 l40 69 -630
0 -629 0 -1 63 c0 74 -8 230 -12 232 -1 2 -21 -37 -45 -84z"/>
<path d="M807 673 c-14 -14 -6 -43 15 -54 18 -10 24 -8 39 9 14 18 30 22 110
25 l94 3 -102 2 c-61 1 -103 6 -103 12 0 11 -43 14 -53 3z"/>
<path d="M2735 560 c-4 -6 -73 -11 -168 -12 l-162 -2 155 -3 c138 -3 157 -6
176 -24 28 -26 54 -16 54 22 0 24 -4 29 -24 29 -14 0 -28 -4 -31 -10z"/>
<path d="M1372 360 c-1 -105 -6 -160 -14 -168 -8 -8 -52 -12 -132 -12 -99 0
-123 3 -138 17 -22 20 -53 7 -53 -22 0 -29 31 -42 53 -22 15 14 40 17 144 17
95 0 128 3 137 14 8 9 11 63 8 172 l-3 159 -2 -155z"/>
<path d="M1760 310 l-5 -205 -185 0 c-102 0 -188 -4 -191 -9 -10 -13 1 -44 17
-50 8 -3 23 3 34 14 18 18 34 20 169 20 114 0 151 3 160 14 8 9 11 75 9 217
l-3 204 -5 -205z"/>
<path d="M2126 443 c-4 -42 -3 -70 4 -77 7 -7 10 14 10 67 0 42 -2 77 -4 77
-2 0 -6 -30 -10 -67z"/>
<path d="M1560 417 c0 -49 -4 -87 -10 -87 -5 0 -14 -9 -20 -21 -14 -26 4 -51
34 -47 20 3 21 8 18 113 -5 133 -22 167 -22 42z"/>
<path d="M1932 445 c-2 -38 -7 -53 -22 -63 -24 -15 -26 -50 -4 -59 23 -9 50
11 45 33 -1 11 -6 46 -10 79 l-8 60 -1 -50z"/>
<path d="M2536 363 c-4 -4 -101 -10 -214 -13 l-207 -6 203 -2 c170 -2 204 -4
208 -17 4 -9 19 -15 36 -15 26 0 29 3 26 28 -3 27 -34 42 -52 25z"/>
</g>
</svg>
