<?xml version="1.0" standalone="no"?>
<!DOCTYPE svg PUBLIC "-//W3C//DTD SVG 20010904//EN"
 "http://www.w3.org/TR/2001/REC-SVG-20010904/DTD/svg10.dtd">
<svg version="1.0" xmlns="http://www.w3.org/2000/svg"
 width="837.000000pt" height="314.000000pt" viewBox="0 0 837.000000 314.000000"
 preserveAspectRatio="xMidYMid meet">

<g transform="translate(0.000000,314.000000) scale(0.100000,-0.100000)"
fill="#000000" stroke="none">
<path d="M1922 3058 c-17 -17 -15 -57 3 -64 13 -5 15 -39 15 -220 0 -179 2
-214 14 -214 12 0 15 40 18 243 2 133 -1 248 -6 255 -11 15 -29 15 -44 0z"/>
<path d="M2470 3000 c-8 -15 -6 -24 10 -40 17 -17 20 -33 20 -115 l0 -95 -180
0 -180 0 0 -95 c0 -78 3 -95 15 -95 12 0 15 17 15 91 l0 90 170 -3 170 -3 0
108 c0 59 4 107 9 107 13 0 22 30 16 51 -8 25 -51 25 -65 -1z"/>
<path d="M1274 2728 c-5 -16 -1 -27 15 -39 17 -14 21 -28 21 -73 0 -31 5 -56
10 -56 6 0 10 27 10 60 0 33 5 69 12 79 9 15 9 23 -1 35 -20 24 -58 20 -67 -6z"/>
<path d="M1740 2575 c-11 -13 -7 -15 25 -15 32 0 36 2 25 15 -7 8 -18 15 -25
15 -7 0 -18 -7 -25 -15z"/>
<path d="M1188 2468 l-48 -80 0 -103 c0 -95 -9 -131 -25 -105 -10 16 -52 12
-59 -6 -19 -49 37 -75 67 -31 15 21 16 20 16 -31 l1 -54 -235 4 c-209 3 -236
1 -240 -13 -14 -44 43 -70 65 -29 10 19 21 20 224 20 207 0 214 -1 239 -23 34
-28 34 -37 2 -37 -24 0 -25 -2 -25 -75 l0 -75 45 0 45 0 0 60 c0 33 3 60 7 60
15 0 93 -85 93 -102 0 -12 8 -18 23 -18 24 0 69 -38 358 -298 l26 -23 72 62
c39 34 71 65 71 69 0 4 -75 72 -167 152 -93 80 -242 211 -333 292 l-165 147
-5 158 -5 159 -47 -80z"/>
<path d="M2820 2450 c-8 -5 -75 -10 -147 -10 -112 0 -133 -2 -133 -15 0 -13
22 -15 134 -15 112 0 135 -3 140 -16 8 -20 45 -15 60 9 21 33 -20 69 -54 47z"/>
<path d="M1756 2212 c17 -15 60 -53 96 -84 36 -32 68 -58 73 -58 4 0 15 -10
26 -22 l18 -23 1 23 c0 21 4 22 85 22 l85 0 0 -45 c0 -38 -3 -45 -20 -45 -16
0 -20 -7 -20 -34 0 -28 8 -40 45 -70 l45 -37 0 70 c0 41 -4 71 -10 71 -5 0
-10 20 -10 45 l0 45 90 0 90 0 0 -45 c0 -43 -1 -45 -30 -45 l-30 0 0 -75 0
-75 47 0 46 0 -7 120 -7 120 34 0 c32 0 37 5 81 80 25 44 46 81 46 82 0 2
-181 4 -403 5 l-402 2 31 -27z"/>
<path d="M167 2034 c-13 -13 -7 -62 8 -68 13 -5 15 -41 15 -241 0 -150 4 -235
10 -235 6 0 10 85 10 235 0 170 3 241 12 255 10 15 10 25 2 38 -12 18 -45 28
-57 16z"/>
<path d="M5260 1828 l0 -162 -28 27 c-52 50 -162 63 -231 27 -92 -47 -137
-153 -129 -307 7 -152 72 -249 184 -274 102 -23 192 14 224 91 16 38 22 32 35
-33 l10 -52 78 -3 77 -3 0 426 0 425 -110 0 -110 0 0 -162z m-48 -249 c29 -16
48 -70 48 -142 0 -82 -15 -124 -51 -142 -40 -21 -54 -19 -91 14 -31 28 -33 33
-36 110 -4 89 7 132 42 156 24 18 59 19 88 4z"/>
<path d="M2870 1800 l0 -170 -100 0 c-60 0 -100 4 -100 10 0 6 -32 10 -75 10
l-75 0 0 -45 0 -45 75 0 c73 0 75 1 75 25 l0 25 100 0 100 0 0 -90 0 -90 -100
0 c-82 0 -100 3 -100 15 0 9 -9 15 -22 15 -13 0 -47 3 -75 6 l-53 7 0 -53 0
-53 53 7 c28 3 62 6 75 6 13 0 22 6 22 15 0 12 18 15 100 15 l100 0 0 -135 0
-135 60 0 60 0 0 -54 c0 -40 -4 -55 -16 -60 -10 -4 -14 -15 -12 -33 3 -24 8
-28 33 -28 25 0 30 4 33 28 2 18 -2 29 -12 33 -12 5 -16 20 -16 60 l0 54 45 0
45 0 0 165 0 165 145 0 145 0 0 -165 0 -165 110 0 110 0 0 415 0 415 -110 0
-110 0 0 -160 0 -161 -142 3 -143 3 -3 158 -3 157 -109 0 -110 0 0 -170z"/>
<path d="M414 1726 c-15 -40 30 -76 59 -47 7 7 94 11 259 11 241 0 248 -1 248
-20 0 -18 7 -20 75 -20 l75 0 0 45 0 45 -75 0 c-43 0 -75 -4 -75 -10 0 -6 -90
-10 -249 -10 -156 0 -252 4 -256 10 -9 15 -55 12 -61 -4z"/>
<path d="M3893 1726 c-68 -22 -114 -56 -134 -100 -33 -73 -30 -76 63 -76 70 0
85 3 105 21 14 14 40 24 71 27 43 4 51 1 66 -19 33 -48 24 -56 -71 -62 -148
-10 -221 -45 -262 -124 -16 -31 -14 -129 4 -162 35 -68 120 -108 209 -97 57 6
92 27 114 67 10 16 20 29 24 29 4 0 10 -20 14 -45 l6 -45 89 0 89 0 0 236 c0
154 -4 243 -11 257 -23 44 -64 78 -113 92 -61 18 -206 18 -263 1z m185 -340
c8 -68 -26 -116 -83 -116 -43 0 -75 29 -75 68 0 47 57 83 125 79 25 -2 31 -7
33 -31z"/>
<path d="M4735 1721 c-39 -24 -68 -57 -93 -106 l-21 -40 -1 78 0 77 -105 0
-105 0 0 -295 0 -295 104 0 104 0 4 163 c3 89 8 170 12 179 14 30 58 50 123
56 l63 5 0 98 0 99 -27 0 c-16 0 -41 -8 -58 -19z"/>
<path d="M6652 1722 c-77 -28 -118 -72 -136 -144 l-6 -28 89 0 c65 0 92 4 98
14 13 21 49 36 90 36 46 0 63 -14 63 -51 0 -26 -1 -26 -87 -32 -149 -11 -212
-40 -250 -117 -45 -88 -16 -194 64 -238 94 -51 211 -35 254 35 25 39 29 36 43
-29 l6 -28 91 0 90 0 -3 238 c-3 271 -8 287 -88 331 -62 35 -238 41 -318 13z
m198 -356 c0 -47 -4 -57 -26 -75 -36 -28 -79 -27 -109 4 -42 41 -31 79 29 106
23 10 56 19 74 19 l32 0 0 -54z"/>
<path d="M7511 1723 c-36 -18 -88 -82 -97 -120 -12 -47 -24 -21 -24 52 l0 75
-105 0 -105 0 0 -295 0 -295 110 0 110 0 0 158 c0 105 4 165 13 182 17 35 73
60 135 60 l52 0 0 100 0 100 -27 0 c-16 0 -43 -8 -62 -17z"/>
<path d="M7850 1731 c-50 -16 -89 -41 -128 -86 -52 -59 -76 -130 -75 -220 0
-123 60 -217 168 -267 60 -27 188 -32 245 -9 85 36 150 99 165 164 l7 27 -96
0 c-84 0 -97 -2 -106 -19 -12 -24 -73 -45 -106 -37 -36 9 -64 42 -64 76 l0 30
186 0 187 0 -6 76 c-10 132 -72 223 -176 259 -46 16 -158 19 -201 6z m158
-167 c41 -47 32 -54 -67 -54 l-90 0 11 30 c21 62 101 75 146 24z"/>
<path d="M5649 1438 l98 -293 75 -3 74 -3 45 141 c24 77 47 140 51 140 6 0 37
-95 79 -237 l12 -43 77 0 77 0 102 288 c55 159 101 291 101 295 0 4 -42 7 -93
7 l-94 0 -44 -140 c-24 -77 -46 -140 -50 -140 -3 0 -24 62 -45 138 l-40 137
-76 3 -76 3 -21 -71 c-12 -38 -31 -102 -42 -141 -12 -39 -25 -67 -29 -62 -5 4
-27 68 -51 141 l-42 132 -93 0 -92 0 97 -292z"/>
<path d="M980 1535 c0 -13 -49 -15 -380 -15 -331 0 -380 -2 -380 -15 0 -13 49
-15 379 -15 211 0 381 -4 383 -9 2 -5 36 -12 76 -16 l72 -7 0 46 0 46 -75 0
c-60 0 -75 -3 -75 -15z"/>
<path d="M1981 1265 c-134 -118 -246 -217 -249 -220 -3 -3 15 -5 40 -4 41 2
54 9 106 56 33 29 63 53 66 53 3 0 6 -18 6 -40 l0 -40 40 0 40 0 0 78 0 79 60
52 c52 46 163 202 142 201 -4 -1 -117 -97 -251 -215z"/>
<path d="M980 1355 c0 -12 -37 -15 -252 -17 l-253 -3 -3 -178 c-2 -159 -4
-179 -21 -196 -33 -33 -3 -84 37 -62 14 8 15 35 13 220 l-3 211 241 0 241 0 0
-25 c0 -24 2 -25 75 -25 l75 0 0 45 0 45 -75 0 c-60 0 -75 -3 -75 -15z"/>
<path d="M1200 1145 c0 -43 4 -75 10 -75 23 0 8 -66 -30 -132 -39 -68 -40 -72
-40 -164 l0 -94 -124 0 c-73 0 -127 4 -131 10 -3 6 -17 10 -30 10 -18 0 -26
-7 -31 -24 -3 -14 -3 -30 1 -35 9 -16 55 -13 61 4 5 12 29 15 130 15 l124 0 0
-55 0 -55 130 0 130 0 -2 -178 -3 -177 -129 -3 c-107 -2 -132 0 -147 14 -29
26 -54 14 -54 -26 0 -28 4 -36 21 -38 11 -2 27 4 34 13 10 12 37 15 137 15 68
0 133 5 144 10 18 10 19 23 19 190 l0 180 90 0 90 0 0 -103 c0 -91 -2 -104
-20 -115 -37 -23 -15 -78 27 -70 17 3 18 15 14 146 l-3 142 91 0 91 0 0 -221
0 -221 -192 3 -193 4 -3 -27 c-5 -39 30 -56 58 -28 18 18 33 20 166 20 81 0
154 5 165 10 18 10 19 23 19 235 l0 225 80 0 80 0 0 -74 c0 -65 -2 -74 -20
-79 -28 -7 -28 -63 0 -72 12 -4 27 -1 35 5 17 14 20 46 5 55 -5 3 -10 42 -10
86 l0 79 95 0 95 0 0 -90 c0 -53 4 -90 10 -90 6 0 10 37 10 90 l0 90 300 0
c186 0 300 -4 300 -10 0 -19 36 -30 55 -16 26 19 13 66 -19 66 -13 0 -29 -7
-36 -15 -10 -12 -43 -15 -181 -15 -93 0 -169 3 -169 6 0 3 18 36 40 74 22 38
40 71 40 74 0 3 -290 6 -645 6 l-644 0 -3 159 c-2 87 -2 165 0 172 1 8 13 19
25 24 19 9 22 19 25 78 l3 67 -46 0 -45 0 0 -75z"/>
<path d="M1390 1205 c0 -8 4 -15 9 -15 5 0 14 7 21 15 10 13 9 15 -9 15 -12 0
-21 -6 -21 -15z"/>
<path d="M2130 1145 l0 -75 45 0 45 0 0 75 0 75 -45 0 -45 0 0 -75z"/>
<path d="M2320 1145 l0 -75 39 0 38 0 7 65 c4 36 4 70 1 75 -4 6 -24 10 -46
10 l-39 0 0 -75z"/>
<path d="M2604 375 c-15 -11 -62 -14 -221 -15 -129 0 -203 -4 -203 -10 0 -6
75 -10 205 -10 176 0 205 -2 213 -16 15 -26 56 -14 60 18 4 35 -27 54 -54 33z"/>
</g>
</svg>
